<svg version="1.0" xmlns="http://www.w3.org/2000/svg" width="1488" height="1706.667" viewBox="0 0 1116 1280"><path d="M549.6 1.5c-5.7 2-10.8 6.6-13.8 12.5l-2.8 5.2v52.9l-3.7-3C515.4 58 496 67 496 84.5c0 3.6.7 6.9 1.9 9.3 1.1 2 9.4 11.1 18.5 20.2l16.6 16.5v44.2c0 24.4-.3 44.3-.7 44.3-.4 0-13.8-13-29.8-28.8-30.1-29.9-31.7-31.2-39.7-31.2-6.7 0-14.7 4.9-17.8 11-2.6 5.2-2.7 13.8-.1 18.8 1.1 2 21.3 23 45 46.7l43.1 43v62.7c0 34.6-.3 62.8-.7 62.8-.5 0-33.2-25.7-72.8-57.1-64-50.8-72.1-57.5-73.1-60.8-3.7-12.5-14.9-21.1-27.4-21.1-11.2 0-23.7 8.1-28 18.2-1.9 4.3-2.2 6.5-1.8 12.8.5 8.3 2.3 12.6 7.3 18l3.3 3.5L352 400c6.7 45.4 12.7 86.3 13.5 91 .7 4.7 1.2 8.6 1 8.8-.3.3-107.6-61.5-108.9-62.8-.4-.4-7.7-26.6-16.2-58.2-8.4-31.5-15.9-58.5-16.4-59.9-2.6-6.3-11.5-11.9-18.7-11.9-10.2.1-20.3 10.1-20.3 20.1 0 2.5 18.1 72.5 20.5 79.7.3.7.1 1.1-.3.9-33.6-19.1-75.1-43.4-76.3-44.6-.9-.9-4-10.6-6.9-21.6-6.5-24.7-7.3-26.7-12.2-31-7.2-6.1-16.6-6.5-24.8-1.1-5.7 3.8-8.5 9.6-8.4 17.7l.1 6.6-21.3-12.4c-23.4-13.5-27.7-15.1-36.5-13.2-5.6 1.2-12.2 5.8-15.6 10.8-6.5 9.7-5 23.3 3.5 31.7 1.6 1.6 12.2 8.3 23.5 14.8 11.4 6.5 20.7 12.2 20.7 12.7 0 .4-1.4 1.1-3.1 1.4-6.4 1.4-13.9 11.8-13.9 19.1 0 10.1 10 20.4 19.9 20.4 2.2 0 14-2.7 26.3-6l22.3-6 12.5 7.2c54.6 31.5 65.2 37.8 63.9 38.2-.8.3-18.2 5-38.6 10.4-20.5 5.5-38.8 10.9-40.5 11.9-1.8 1-4.6 3.8-6.3 6.2-2.6 3.7-3 5.1-3 11.1s.4 7.4 3 11.2c5.6 7.9 15.2 10.8 25.5 7.8 1.9-.6 27.8-7.6 57.6-15.5l54.1-14.5 27.4 15.8c15.1 8.7 39.3 22.7 53.9 31.1 14.6 8.4 26.8 15.6 27.2 15.9.4.4-18 8.1-41 17.2-22.9 9-61.5 24.3-85.8 34l-44 17.5-4.5-1.2c-12.2-3.3-26.6 3.5-32.4 15.2-2.8 5.7-2.8 21.3 0 27 5.8 11.6 20.3 18.4 32.5 15.2l4.5-1.2 38 15.1c20.9 8.3 59.5 23.6 85.7 34 26.3 10.4 47.4 19.2 47 19.5-2.8 2.6-109 62.9-110.2 62.6-.8-.3-24.4-6.6-52.5-14.1-28-7.5-53.2-14.4-55.9-15.1-11.9-3.5-21.2-1-27.1 7.3-2.6 3.8-3 5.2-3 11.2 0 6 .4 7.4 3 11.1 1.7 2.4 4.5 5.1 6.2 6.2 1.8 1 20 6.3 40.5 11.8 20.5 5.5 37.9 10.2 38.7 10.5.8.2-16.1 10.6-37.5 22.9l-39 22.4-22.3-5.9c-12.2-3.3-24-6-26.2-6C45 861 35 871.3 35 881.4c0 7.3 7.5 17.7 13.9 19.1 1.7.3 3.1 1 3.1 1.4 0 .4-8.9 5.8-19.8 12.1-10.8 6.2-21.2 12.5-22.9 13.8-1.8 1.3-4.7 5.3-6.4 8.8-2.8 5.6-3.1 7.1-2.6 12.2.6 6.7 2.6 11.3 7.1 16 3.8 4.2 7.1 5.9 13.4 7.2 8 1.8 12.5.1 35.9-13.5l21.4-12.4-.6 5.3c-1.1 8.2 3.2 16.8 10 20.4 10.2 5.3 23.1 1.7 28-7.9.9-1.6 4.2-12.8 7.5-25 3.2-12.2 6-22.2 6.2-22.3.2-.1 5.5-3.2 11.8-6.8 10.1-5.8 50.1-28.8 61.7-35.5l4.2-2.4-1.9 6.8c-10.3 37.8-19 71.5-19 74.1 0 10.1 10.1 20.1 20.3 20.2 6.9 0 15-4.8 18.2-11 .7-1.4 8.1-28.2 16.5-59.5 8.4-31.4 15.7-57.8 16.4-58.8 1-1.6 108.5-64.2 109.1-63.5.1.2-5.8 41.2-13.2 91.3l-13.5 91-3.4 3.7c-5.1 5.7-6.7 9.6-7.2 17.8-.4 6.3 0 8.5 1.8 12.8 4.1 9.6 14.8 17.1 25.6 18 13.7 1.1 25.8-7.4 29.8-20.9 1-3.2 6.5-8 45.1-38.5 86.5-68.6 99.6-78.9 100.5-79.2.7-.2 1 22.3 1 62.5v62.8l-43.1 43c-23.7 23.7-43.9 44.7-45 46.7-2.6 5-2.5 13.6.1 18.8 3.1 6.1 11.1 11 17.8 11 8 0 9.6-1.3 39.7-31.2 16-15.8 29.4-28.8 29.8-28.8.4 0 .7 19.9.7 44.3v44.2l-16.6 16.5c-9.1 9.1-17.4 18.2-18.5 20.2-2.6 5-2.5 13.6.1 18.8 3.2 6.3 11.1 11 18.4 11 3.7 0 11.2-3.3 14.4-6.2l2.2-2.1v52.9l2.6 5.2c9.3 18.7 35.5 18.7 44.8 0 2.6-5.2 2.6-5.2 2.6-31.5v-26.4l3.8 3c13.8 11.1 33.2 2.1 33.2-15.4 0-3.6-.7-6.9-1.9-9.3-1.1-2-9.4-11.1-18.5-20.2l-16.6-16.5v-44.2c0-24.4.3-44.3.7-44.3.4 0 13.8 13 29.8 28.8 30.1 29.9 31.7 31.2 39.7 31.2 6.7 0 14.7-4.9 17.8-11 2.6-5.2 2.7-13.8.1-18.8-1.1-2-21.3-23-45-46.7l-43.1-43v-62.7c0-34.6.3-62.8.8-62.8.4 0 33.1 25.7 72.7 57.1 64.2 50.9 72.1 57.4 73.1 60.7 2.7 9.1 9.8 16.8 18.1 19.6 13.2 4.5 28.6-1.6 36.1-14.2 2.4-4.2 2.7-5.7 2.7-13.7 0-9.9-1-12.8-6.9-19.3l-3.4-3.7-13.5-91c-7.4-50.1-13.3-91.1-13.2-91.3.2-.2 24.5 13.6 54.1 30.7 33.4 19.2 54.4 31.9 55.2 33.3.7 1.3 7.6 25.9 15.3 54.8 7.7 28.9 14.6 54.9 15.5 57.7 3.6 12.9 16.7 19.6 27.9 14.4 7.2-3.3 12.5-11.1 12.5-18.2 0-2.5-18.1-72.5-20.5-79.7-.3-.7-.1-1.1.3-.9 7 4.1 76.8 44.1 77 44.3.2.1 3 10.1 6.2 22.3 3.3 12.2 6.6 23.4 7.5 25 3.7 7.2 13.9 11.9 21.8 10.1 11.1-2.5 18.7-14.1 15.9-24.4-.6-2-.9-3.6-.8-3.6.2 0 10 5.6 21.9 12.5 15.3 8.9 23.1 12.8 26.7 13.5 16.4 3.1 31.6-10.9 29.7-27.3-.8-5.9-5-14-9.1-17-1.7-1.3-12-7.5-22.8-13.7-10.9-6.3-19.8-11.7-19.8-12.1 0-.4 1.4-1.1 3.1-1.4 6.4-1.4 13.9-11.8 13.9-19.1 0-10.1-10-20.4-19.9-20.4-2.2 0-14 2.7-26.2 6l-22.3 5.9-38.3-22.1c-21.1-12.1-38.3-22.3-38.3-22.7 0-.4 16.8-5.1 37.3-10.5 20.4-5.4 39-10.8 41.2-12 2.1-1.1 5.3-4.1 7-6.4 2.6-3.8 3-5.2 3-11.2 0-6-.4-7.4-3-11.2-4.1-5.8-9.6-8.8-16.1-8.8-3.5 0-22.6 4.7-59.5 14.5-29.9 8-56 15-57.9 15.6-3.4 1-4.6.4-57.5-30.1-29.7-17.2-54.3-31.5-54.7-31.9-.4-.3 20.7-9.1 47-19.5 26.2-10.4 64.8-25.7 85.7-34l38-15.1 4.5 1.2c9 2.4 20.1-.8 27-7.7 11.3-11.3 11.2-30.8-.3-42.3-6.7-6.7-17.8-9.8-26.6-7.4l-4.5 1.2-44-17.5c-24.3-9.7-62.9-25-85.8-34-23-9.1-41.4-16.8-41-17.2.4-.3 25-14.6 54.6-31.7l53.9-31.1 58.1 15.5c39 10.4 59.7 15.5 63.1 15.5 6.4 0 11.9-3.1 16-8.8 2.6-3.8 3-5.2 3-11.2 0-6-.4-7.4-3-11.2-1.7-2.3-4.9-5.3-7-6.4-2.2-1.2-20.4-6.5-40.5-11.8-43.9-11.7-40-10.5-37.5-11.8 1.1-.6 17.8-10.2 37-21.3 19.3-11.1 36-20.7 37.1-21.3 1.8-.9 6.2-.1 24.3 4.8 12.2 3.3 23.9 6 25.9 6 10.2-.1 20.2-10.2 20.2-20.4 0-7.3-7.5-17.7-13.9-19.1-1.7-.3-3.1-1-3.1-1.4 0-.5 9.3-6.2 20.7-12.7 21.6-12.5 25.1-15.1 28.4-21.6 7.4-14.5-1.3-32.4-17.4-35.8-8.6-1.7-12.8-.2-36.2 13.4l-21.2 12.3.1-6.6c.1-8.1-2.7-13.9-8.4-17.7-8.2-5.4-17.6-5-24.8 1.1-4.9 4.3-5.7 6.3-12.2 31-2.9 11-6 20.7-6.9 21.6-1.2 1.2-42.7 25.5-76.3 44.6-.4.2-.6-.2-.3-.9 2.4-7.2 20.5-77.2 20.5-79.7 0-10-10.1-20-20.3-20.1-7.2 0-16.1 5.6-18.7 11.9-.5 1.4-8 28.4-16.4 59.9-8.5 31.6-15.8 57.8-16.2 58.2-1.3 1.3-108.6 63.1-108.9 62.8-.2-.2.3-4.1 1-8.8.8-4.7 6.8-45.6 13.5-91l12.2-82.5 3.3-3.7c6-6.5 7-9.4 7-19.3 0-10.5-1.8-14.8-8.4-20.8-12.2-11-28.8-11.6-39.8-1.4-4.7 4.3-6.9 7.9-8.7 13.8-1 3.3-9.2 10.1-73.1 60.8-39.6 31.4-72.3 57.1-72.7 57.1-.5 0-.8-28.2-.8-62.8v-62.7l43.1-43c23.7-23.7 43.9-44.7 45-46.7 2.7-5.3 2.6-14.1-.4-19.3-4.6-8.1-14.4-12-23.7-9.5-4 1.1-7.8 4.5-33.5 30.1-16 15.9-29.4 28.9-29.8 28.9-.4 0-.7-19.9-.7-44.3v-44.2l16.6-16.5c9.1-9.1 17.4-18.2 18.5-20.2 1.2-2.4 1.9-5.7 1.9-9.3 0-9.9-5.5-17-15.3-19.6-6-1.7-12.6-.1-17.9 4.2l-3.8 3V19.2l-2.8-5.3c-5.9-11.4-18.8-16.6-30.6-12.4zm-94.8 382.9l78.2 62v74.3c0 53.6-.3 74.3-1.1 74.3s-126.5-71.9-128.8-73.7c-.2-.2-6.9-43.8-14.7-97-7.9-53.3-14.5-98.5-14.9-100.6-.5-3.6-.4-3.8 1.3-2.5 1 .7 37 29.2 80 63.2zm273.3 36.4c-8.1 55.1-15 100.4-15.2 100.5-2.2 1.8-128 73.7-128.8 73.7-.8 0-1.1-22.6-1.1-74.3v-74.3l79.7-63.2c43.9-34.7 79.8-63 80-62.9.1.2-6.5 45.4-14.6 100.5zM441.6 602.1C477 622.5 506 639.6 506 640c0 .4-29 17.4-64.3 37.8l-64.4 37.1-48.9-19.3c-26.9-10.7-64.2-25.4-82.9-32.8-18.7-7.4-39.1-15.5-45.2-17.9-6.2-2.4-11.3-4.6-11.3-4.9 0-.3 18.8-7.9 41.7-17 23-9.1 65.1-25.8 93.8-37.2 28.6-11.4 52.2-20.7 52.4-20.7.2-.1 29.3 16.6 64.7 37zM796 587.7c53 21 110.6 43.8 124.3 49.1 3.7 1.5 6.7 2.9 6.7 3.2 0 .3-21 8.8-46.8 19-25.7 10.1-68 26.9-94.1 37.2l-47.5 18.7-64.3-37.1c-35.4-20.4-64.2-37.5-64.1-38 .6-1.7 128.3-74.7 129.8-74.2.8.3 26 10.2 56 22.1zM533 758.8v74.7l-65.7 52c-36.1 28.6-72 57-79.7 63.2-7.7 6.2-14.1 11.1-14.3 10.9-.6-.6 29.5-201 30.3-201.3.5-.2 29.5-17 64.4-37.2 34.9-20.3 63.8-36.9 64.3-37 .4-.1.7 33.5.7 74.7zm117-36.5c34.4 19.8 62.7 36.2 62.9 36.4.5.3 30.1 200.6 29.8 201-.1.1-36.1-28.3-80-63L583 833.5V683.9l2.3 1.2c1.2.7 30.3 17.4 64.7 37.2z"/><path d="M428.5 416.5c2.3 5.7 4.7 17.2 5.7 26.7 2.5 24.4-3.9 53.1-14.7 66.4l-3.5 4.2 4.3-1c12.7-2.9 37.3 5.2 58 18.9 7.2 4.8 21.6 18.3 25.5 23.8 2 2.9 2 2.7-.3-4.6-3.6-11.4-4.8-23.4-4.2-39.4.9-22 6.3-39.5 15.4-49.6l3.6-4-2.9.8c-5 1.4-16.6.6-24.9-1.6-20.8-5.7-45.6-21.8-59.5-38.6-1.8-2.2-2.9-3.1-2.5-2zm25.2 35.9c11 7 23 12.4 35.3 15.7 7.4 1.9 7.3 1.5 4 12.4-3 10.2-5 23.7-5 34.2 0 5.1-.3 9.3-.6 9.3-.4 0-3.8-2-7.8-4.4-12.8-8.1-23.6-12.5-41.3-17.2-.9-.2-.7-1.9.8-6.1 3.2-9.3 5.8-24.1 6.5-36.6.4-6.5.8-11.7 1-11.7.2 0 3.4 2 7.1 4.4zM683 420.2c-17.1 19-50 34.9-72.5 35.2-4.4 0-9.2-.3-10.8-.7l-2.7-.7 3.5 4.8c8.4 11.7 12 28.7 11.2 52.7-.5 16.7-2.4 26.9-6.7 37l-2.1 5 6-6.1c14.6-15.1 35.5-27.1 56.2-32.5 8.3-2.1 20.9-2.8 26.9-1.5l3.5.8-2.6-2.8c-9.7-10.5-15.3-37.1-13-61.2 1.1-12.3 3.7-23.8 7-31.6 1.1-2.5 1.9-4.6 1.8-4.5-.1 0-2.7 2.8-5.7 6.1zm-14.4 42.1c.1 14.5.8 19.7 5.1 37.3.4 1.9-.1 2.3-3.9 2.9-7.9 1.3-23.2 6.7-33.3 11.7-5.5 2.7-10.4 5.4-10.9 5.9-.6.5-1.3.9-1.7.9-.3 0-.9-8-1.2-17.8-.5-16.4-2.1-27.3-5.2-35.3-.5-1.3.3-1.8 4.2-2.4 8.3-1.2 25.4-7.4 35.8-12.9 5.5-3 10.2-5.4 10.5-5.5.3-.1.5 6.8.6 15.2zM380 584.8c-.1 3.4-5.7 12.7-11.5 19-16.4 17.7-44.2 32.4-66.5 35.2l-5.5.6 4 .8c19.5 3.6 42.5 16 58.6 31.3 8.8 8.5 14.2 15.9 16.9 23.6 1 2.8 1.9 4.4 1.9 3.3.2-3.6 6.3-13.3 12.4-19.6 15.9-16.4 40.5-29.7 61.6-33.4 4.2-.7 6.9-1.6 6.1-1.8-.8-.3-4.6-1.3-8.5-2.2-8.5-2.1-24.4-9.5-34.5-16.2-9.2-6-23.8-19.8-28.2-26.7-1.8-2.8-4-7.3-5-10.1-.9-2.8-1.7-4.5-1.8-3.8zm29.4 50c6 4 11.3 7.2 11.8 7.2 2.2 0 .3 1.8-3.9 3.9-8.9 4.3-24.1 14.9-31.8 22.2l-7.7 7.3-5-5.8c-6.5-7.3-18.8-17.3-29.5-23.9l-8.3-5 6.7-3.5c11.1-5.6 22.5-13.6 30.4-21.4l7.4-7.3 9.5 9.5c6.1 6.2 13.4 12.2 20.4 16.8zM738.1 581c-.4 7.5-14.6 24-28.9 33.8-15 10.3-33.9 18.3-46.4 19.8-5.5.6-7.2 2.4-2.4 2.4 7.3 0 28.8 9.7 42.8 19.2 15.4 10.5 31.7 30.1 31.8 38.2.1 1.3.8.3 1.9-2.5 5.8-14.9 27-33.1 49.8-42.9 10-4.2 23.3-8 28.4-8 2.6 0 3-.3 1.9-1-.8-.5-2.5-1-3.6-1-3.5 0-17.3-5-25.9-9.3-11.4-5.7-21.6-12.8-30.6-21.4-8.8-8.5-14.2-15.9-16.9-23.6-1-2.8-1.9-4.5-1.9-3.7zm5.3 29.5c6 7 18.6 17.2 29.3 23.8l8.3 5-6.7 3.4c-10.5 5.3-22.4 13.6-30.7 21.5l-7.6 7.3-5.5-6.1c-6.8-7.7-18.2-16.9-28.5-23.1-4.4-2.7-7.9-5-8-5.4 0-.3 2.1-1.5 4.8-2.8 8.4-4.1 24.4-15.3 31.7-22.3 3.8-3.7 7.3-6.8 7.6-6.8.3 0 2.7 2.5 5.3 5.5zm-240 125.3c-14.3 13.7-33.3 24.3-52.6 29.3-9.3 2.4-23.5 2.9-28.3 1l-3-1.2 3.1 3.3c10.2 10.7 15.8 36.8 13.4 61.8-1.1 11.5-4.1 25-7.3 32-1.3 3-.2 2.2 7.7-5.5 14.3-13.9 33.1-24.5 52.8-29.6 9.6-2.5 24.9-3.1 28.6-1.1 1.7 1 1.3.1-1.8-4-2.2-2.9-5-7.8-6.1-10.8-8.1-21.3-7.9-57.3.5-78.3 1.3-3.1 2.3-5.7 2.2-5.7 0 .1-4.2 4-9.2 8.8zM493 772.9c0 13.9 1.7 27.6 4.5 36 .8 2.5 1.5 4.6 1.5 4.7 0 .1-2.1.5-4.7.9-8.1 1.1-25.3 7.3-36.2 13.1-5.7 2.9-10.5 5.4-10.5 5.4-.1 0-.1-6.6-.2-14.8-.1-14.6-1.8-27.3-4.8-36l-1.4-4 4.6-.7c10.2-1.4 35.4-11.3 43.5-17 1.2-.8 2.5-1.5 2.9-1.5.5 0 .8 6.2.8 13.9zm117.5-49.4c5.5 15.3 7 26.3 6.2 45-.9 22-6.3 39.5-15.4 49.6l-3.6 4 2.9-.8c1.6-.4 6.1-.7 9.9-.7 21.7.4 55.6 18.4 72.1 38.4 4.8 5.9 6.6 7.1 4.4 3.1-1.9-3.6-4.8-19.1-5.5-29.1-1.6-23.4 5.2-51.7 15.4-63.2l3.1-3.6-4.2 1c-12.8 2.9-37.4-5.1-58.1-18.9-7-4.7-21.2-17.9-25.6-23.8-1.4-1.8-2-2.2-1.6-1zm24.9 36.4c11.6 7.6 24.7 13.1 42.3 17.7.9.2.7 1.9-.8 6.1-3.2 9.3-5.8 24.1-6.5 36.6-.4 6.5-.8 11.7-1 11.7-.2 0-3.6-2.1-7.6-4.7-8.9-5.8-24.3-12.6-34-15.2-8.3-2.2-8.1-1.6-4.8-12.6 3-10.2 5-23.7 5-34.3 0-5 .3-9.2.7-9.2.4 0 3.4 1.8 6.7 3.9z"/></svg>